<?xml version="1.0" encoding="UTF-8" standalone="no"?>
<!-- Created with Inkscape (http://www.inkscape.org/) -->

<svg
   xmlns:dc="http://purl.org/dc/elements/1.1/"
   xmlns:cc="http://creativecommons.org/ns#"
   xmlns:rdf="http://www.w3.org/1999/02/22-rdf-syntax-ns#"
   xmlns:svg="http://www.w3.org/2000/svg"
   xmlns="http://www.w3.org/2000/svg"
   xmlns:sodipodi="http://sodipodi.sourceforge.net/DTD/sodipodi-0.dtd"
   xmlns:inkscape="http://www.inkscape.org/namespaces/inkscape"
   width="209.49709mm"
   height="62.864998mm"
   viewBox="0 0 209.49709 62.864998"
   version="1.1"
   id="svg8"
   inkscape:version="0.92.2 (5c3e80d, 2017-08-06)"
   sodipodi:docname="logo.svg">
  <defs
     id="defs2" />
  <sodipodi:namedview
     id="base"
     pagecolor="#ffffff"
     bordercolor="#666666"
     borderopacity="1.0"
     inkscape:pageopacity="0.0"
     inkscape:pageshadow="2"
     inkscape:zoom="0.98994949"
     inkscape:cx="538.8528"
     inkscape:cy="4.4764774"
     inkscape:document-units="mm"
     inkscape:current-layer="layer1"
     showgrid="false"
     inkscape:window-width="1920"
     inkscape:window-height="1017"
     inkscape:window-x="1919"
     inkscape:window-y="1072"
     inkscape:window-maximized="1" />
  <metadata
     id="metadata5">
    <rdf:RDF>
      <cc:Work
         rdf:about="">
        <dc:format>image/svg+xml</dc:format>
        <dc:type
           rdf:resource="http://purl.org/dc/dcmitype/StillImage" />
        <dc:title></dc:title>
      </cc:Work>
    </rdf:RDF>
  </metadata>
  <g
     inkscape:label="Layer 1"
     inkscape:groupmode="layer"
     id="layer1"
     transform="translate(420.73663,-34.246075)">
    <g
       id="g3883"
       transform="matrix(0.26458333,0,0,0.26458333,-459.0483,-76.402674)">
      <path
         id="path3794"
         d="m 907.9,470.6 h -72.5 v 86.3 h 72.5 c 15.8,0 28.7,-12.8 28.7,-28.7 v -29 c 0,-15.7 -12.8,-28.6 -28.7,-28.6 z m 12.3,59.8 c 0,5.9 -4.8,10.7 -10.7,10.7 h -58.4 v -54.7 h 58.4 c 5.9,0 10.7,4.8 10.7,10.7 z"
         class="st0"
         inkscape:connector-curvature="0"
         style="fill:#293948" />
      <rect
         id="rect3796"
         height="86.300003"
         width="15.4"
         class="st0"
         y="470.60001"
         x="800.90002"
         style="fill:#293948" />
      <polygon
         id="polygon3798"
         points="784.9,543 714.6,543 714.6,470.6 699.2,470.6 699.2,556.9 713.8,556.9 714.6,556.9 784.9,556.9 "
         class="st0"
         style="fill:#293948" />
      <polygon
         id="polygon3800"
         points="584.3,615.5 542.4,615.5 542.4,604.3 580.7,604.3 580.7,596.9 542.4,596.9 542.4,586.1 584.3,586.1 584.3,578.7 542.4,578.7 540.1,578.7 535,578.7 535,622.9 540.1,622.9 542.4,622.9 584.3,622.9 "
         class="st0"
         style="fill:#293948" />
      <rect
         id="rect3802"
         height="43.900002"
         width="7.3000002"
         class="st0"
         y="578.70001"
         x="798"
         style="fill:#293948" />
      <polygon
         id="polygon3804"
         points="871.3,578.7 817.2,578.7 817.2,586.8 840.4,586.8 840.4,622.9 849.4,622.9 849.4,586.8 871.3,586.8 "
         class="st0"
         style="fill:#293948" />
      <polygon
         id="polygon3806"
         points="902,622.9 911,622.9 911,606.7 911.2,606.3 911.6,605.9 935.1,578.7 924.9,578.7 906.5,600 888.1,578.7 877.9,578.7 901.4,605.9 901.8,606.3 902,606.5 "
         class="st0"
         style="fill:#293948" />
      <g
         id="g3834">
        <g
           id="g3812">
          <polygon
             id="polygon3808"
             points="181.6,655.8 181.6,645.5 237.1,645.5 237.1,628.8 286.5,628.8 286.5,618.5 200.1,618.5 200.1,608.1 245.6,608.1 266.4,592.4 326.5,592.4 326.5,582.1 232.8,582.1 232.8,571.8 271.7,571.8 271.7,557.3 327.7,557.3 327.7,547 221.4,547 221.4,536.7 271.7,536.7 271.7,521.5 328.4,521.5 328.4,511.2 188.2,511.2 188.2,500.9 252.2,500.9 235.7,485.8 286.9,485.8 286.9,475.5 166.9,475.5 166.9,465.2 232.2,465.2 232.2,418.2 274.9,418.2 274.9,447.9 297.4,447.9 297.4,418.2 337.3,418.2 337.3,447.9 359.8,447.9 359.8,418.2 402.5,418.2 402.5,482.6 363,518.9 363,588.4 397.6,614.6 397.6,655.8 301.7,655.8 "
             class="st1"
             style="fill:#f57c00" />
          <rect
             id="rect3810"
             height="10.3"
             width="11.3"
             class="st1"
             y="465.20001"
             x="144.8"
             style="fill:#f57c00" />
        </g>
        <g
           id="g3816">
          <rect
             id="rect3814"
             height="10.3"
             width="11.3"
             class="st1"
             y="500.89999"
             x="166.10001"
             style="fill:#f57c00" />
        </g>
        <g
           id="g3820">
          <rect
             id="rect3818"
             height="10.3"
             width="11.3"
             class="st1"
             y="536.70001"
             x="199.3"
             style="fill:#f57c00" />
        </g>
        <g
           id="g3824">
          <rect
             id="rect3822"
             height="10.3"
             width="11.3"
             class="st1"
             y="571.79999"
             x="210.7"
             style="fill:#f57c00" />
        </g>
        <g
           id="g3828">
          <rect
             id="rect3826"
             height="10.3"
             width="11.3"
             class="st1"
             y="608.09998"
             x="177.89999"
             style="fill:#f57c00" />
        </g>
        <g
           id="g3832">
          <rect
             id="rect3830"
             height="10.3"
             width="11.3"
             class="st1"
             y="645.5"
             x="159.5"
             style="fill:#f57c00" />
        </g>
      </g>
      <path
         id="path3836"
         d="m 656,470.6 h -47.3 c -15.8,0 -28.6,12.8 -28.6,28.7 v 29 c 0,15.8 12.8,28.7 28.6,28.7 H 656 c 15.8,0 28.7,-12.8 28.7,-28.7 v -29 C 684.6,483.5 671.8,470.6 656,470.6 Z m 12.2,59.8 c 0,5.9 -4.8,10.7 -10.7,10.7 H 607 c -5.9,0 -10.7,-4.8 -10.7,-10.7 v -33.3 c 0,-5.9 4.8,-10.7 10.7,-10.7 h 50.5 c 5.9,0 10.7,4.8 10.7,10.7 z"
         class="st0"
         inkscape:connector-curvature="0"
         style="fill:#293948" />
      <path
         id="path3838"
         d="m 549.8,499.1 v -3 c 0,-5.3 -4.3,-9.6 -9.6,-9.6 h -48.6 c -2.7,0 -5.1,1.1 -6.8,2.8 -1.8,1.7 -2.8,4.2 -2.8,6.8 0,5.3 4.3,9.6 9.6,9.6 h 54.8 c 0.1,0 0.2,0 0.4,0 5.9,0.1 11.2,2.8 14.8,7.1 3,3.5 4.7,8 4.7,12.9 v 11.6 c 0,11 -9,20 -20,20 h -58.7 c -11,0 -20,-9 -20,-20 v -7.8 h 14.9 v 3.6 c 0.7,5.7 5.5,10 11.3,10 h 45.3 c 4.9,0 9.1,-3.1 10.7,-7.5 0.4,-1.2 0.7,-2.5 0.7,-3.8 V 531 c 0,-1.3 -0.2,-2.6 -0.7,-3.8 -1.6,-4.4 -5.8,-7.5 -10.7,-7.5 h -53.6 c -5.3,-0.5 -10,-3.1 -13.2,-7 -3,-3.5 -4.8,-8 -4.8,-12.9 v -9.2 c 0,-11 9,-20 20,-20 h 58.7 c 11,0 20,9 20,20 v 8.4 h -16.4 z"
         class="st0"
         inkscape:connector-curvature="0"
         style="fill:#293948" />
      <path
         id="path3840"
         d="m 512.7,593.4 v -1.5 c 0,-2.7 -2.2,-5 -4.9,-5 h -24.9 c -1.4,0 -2.6,0.6 -3.5,1.4 -0.9,0.9 -1.4,2.1 -1.4,3.5 0,2.7 2.2,5 4.9,5 h 28 c 0.1,0 0.1,0 0.2,0 3,0.1 5.7,1.5 7.6,3.6 1.5,1.8 2.4,4.1 2.4,6.6 v 5.9 c 0,5.7 -4.6,10.3 -10.2,10.3 h -30 c -5.7,0 -10.2,-4.6 -10.2,-10.3 v -4 h 7.6 v 1.8 c 0.3,2.9 2.8,5.2 5.8,5.2 h 23.2 c 2.5,0 4.7,-1.6 5.5,-3.9 0.2,-0.6 0.3,-1.3 0.3,-2 v -0.3 c 0,-0.7 -0.1,-1.4 -0.3,-2 -0.8,-2.3 -2.9,-3.9 -5.5,-3.9 h -27.4 c -2.7,-0.3 -5.1,-1.6 -6.8,-3.6 -1.5,-1.8 -2.4,-4.1 -2.4,-6.6 V 589 c 0,-5.7 4.6,-10.3 10.2,-10.3 h 30 c 5.7,0 10.2,4.6 10.2,10.3 v 4.3 h -8.4 z"
         class="st0"
         inkscape:connector-curvature="0"
         style="fill:#293948" />
      <path
         id="path3842"
         d="m 781.7,593.6 v -4.7 c 0,-5.6 -4.5,-10.2 -10.1,-10.2 H 738.8 731 v 43.9 h 7.8 v -18.9 h 34.9 v 18.9 h 8 v -15.8 c 0,-2.5 -0.9,-4.8 -2.4,-6.6 v 0 c 1.5,-1.7 2.4,-4.1 2.4,-6.6 z m -8,0.4 c -0.7,1.5 -2.2,2.5 -3.9,2.7 h -31 v -9.8 h 30.5 c 1.4,0 2.6,0.6 3.5,1.4 0.4,0.4 0.7,0.8 0.9,1.3 0.3,0.7 0.5,1.4 0.5,2.2 0,0.7 -0.2,1.5 -0.5,2.2 z"
         class="st0"
         inkscape:connector-curvature="0"
         style="fill:#293948" />
      <path
         id="path3844"
         d="m 651.8,593.9 v -0.5 c 0,-8.1 -6.6,-14.7 -14.7,-14.7 h -24.3 c -8.1,0 -14.7,6.6 -14.7,14.7 v 14.9 c 0,8.1 6.6,14.7 14.7,14.7 h 24.3 c 8,0 14.4,-6.3 14.7,-14.2 h -8.4 v 0.6 c 0,3 -2.5,5.5 -5.5,5.5 H 612 c -3,0 -5.5,-2.4 -5.5,-5.5 v -17.1 c 0,-3 2.5,-5.5 5.5,-5.5 h 25.9 c 3,0 5.5,2.5 5.5,5.5 v 1.6 z"
         class="st0"
         inkscape:connector-curvature="0"
         style="fill:#293948" />
      <path
         id="path3846"
         d="m 718.1,578.7 v 30 c 0,0.5 0,1 -0.1,1.4 0,0.2 -0.1,0.5 -0.1,0.7 0,0 0,0 0,0 0,0.2 -0.1,0.5 -0.1,0.7 -0.1,0.5 -0.2,0.9 -0.4,1.4 -0.1,0.2 -0.2,0.4 -0.2,0.7 -0.1,0.2 -0.2,0.4 -0.3,0.6 -0.1,0.2 -0.2,0.4 -0.3,0.6 -0.1,0.2 -0.2,0.5 -0.4,0.7 -0.2,0.4 -0.5,0.8 -0.7,1.1 -0.1,0.2 -0.3,0.4 -0.4,0.6 -0.1,0.2 -0.3,0.4 -0.4,0.5 -0.5,0.5 -1,1 -1.5,1.5 -0.5,0.4 -1,0.9 -1.6,1.2 -0.2,0.1 -0.4,0.3 -0.6,0.4 -0.4,0.2 -0.8,0.5 -1.2,0.7 -0.4,0.2 -0.8,0.4 -1.3,0.5 -0.2,0.1 -0.5,0.2 -0.7,0.2 -0.5,0.1 -0.9,0.3 -1.4,0.3 -0.3,0 -0.5,0.1 -0.8,0.1 -0.7,0.1 -1.4,0.2 -2.1,0.2 h -24.3 c -0.9,0 -1.8,-0.1 -2.7,-0.2 v 0 c -0.4,-0.1 -0.9,-0.2 -1.3,-0.3 -0.4,-0.1 -0.8,-0.3 -1.2,-0.4 -0.2,-0.1 -0.5,-0.2 -0.7,-0.3 -0.6,-0.3 -1.2,-0.6 -1.7,-0.9 v 0 c -0.8,-0.5 -1.6,-1.1 -2.3,-1.7 0,0 0,0 0,0 -0.2,-0.2 -0.4,-0.3 -0.5,-0.5 -0.7,-0.7 -1.3,-1.5 -1.9,-2.3 0,0 0,0 0,0 -1.5,-2.3 -2.4,-5.1 -2.4,-8 v -29.5 h 8.4 v 13.4 c 0,0.1 0,0.1 0,0.2 v 17.1 c 0,0.1 0,0.1 0,0.2 0.1,2.9 2.4,5.2 5.3,5.3 0.1,0 0.1,0 0.2,0 h 25.9 c 0.1,0 0.1,0 0.2,0 2.9,-0.1 5.3,-2.5 5.3,-5.5 v -0.6 0 -30 h 8.3 z"
         class="st0"
         inkscape:connector-curvature="0"
         style="fill:#293948" />
    </g>
  </g>
  <style
     id="style3792"
     type="text/css">
	.st0{fill:#293948;}
	.st1{fill:#F57C00;}
</style>
</svg>
